<svg width="25" height="25" viewBox="0 0 25 25" fill="none" xmlns="http://www.w3.org/2000/svg">
<path d="M20.2906 4.93467C17.3306 1.98467 12.5306 1.98467 9.59063 4.93467C7.52063 6.98467 6.90063 9.93467 7.70063 12.5347L3.00063 17.2347C2.67063 17.5747 2.44063 18.2447 2.51063 18.7247L2.81063 20.9047C2.92063 21.6247 3.59063 22.3047 4.31063 22.4047L6.49063 22.7047C6.97063 22.7747 7.64063 22.5547 7.98063 22.2047L8.80063 21.3847C9.00063 21.1947 9.00063 20.8747 8.80063 20.6747L6.86063 18.7347C6.57063 18.4447 6.57063 17.9647 6.86063 17.6747C7.15063 17.3847 7.63063 17.3847 7.92063 17.6747L9.87063 19.6247C10.0606 19.8147 10.3806 19.8147 10.5706 19.6247L12.6906 17.5147C15.2806 18.3247 18.2306 17.6947 20.2906 15.6447C23.2406 12.6947 23.2406 7.88467 20.2906 4.93467ZM15.0006 12.7147C13.6206 12.7147 12.5006 11.5947 12.5006 10.2147C12.5006 8.83467 13.6206 7.71467 15.0006 7.71467C16.3806 7.71467 17.5006 8.83467 17.5006 10.2147C17.5006 11.5947 16.3806 12.7147 15.0006 12.7147Z" fill="#3B72FF"/>
</svg>
