<svg width="25" height="25" viewBox="0 0 25 25" fill="none" xmlns="http://www.w3.org/2000/svg">
<path d="M21.4808 3.7347C20.6108 2.8647 19.3808 2.5247 18.1908 2.8247L8.39084 5.2747C6.74084 5.6847 5.47084 6.9647 5.06084 8.6047L2.61084 18.4147C2.31084 19.6047 2.65084 20.8347 3.52084 21.7047C4.18084 22.3547 5.05084 22.7147 5.95084 22.7147C6.23084 22.7147 6.52084 22.6847 6.80084 22.6047L16.6108 20.1547C18.2508 19.7447 19.5308 18.4747 19.9408 16.8247L22.3908 7.0147C22.6908 5.8247 22.3508 4.5947 21.4808 3.7347ZM12.5008 16.5947C10.3608 16.5947 8.62084 14.8547 8.62084 12.7147C8.62084 10.5747 10.3608 8.8347 12.5008 8.8347C14.6408 8.8347 16.3808 10.5747 16.3808 12.7147C16.3808 14.8547 14.6408 16.5947 12.5008 16.5947Z" fill="#292D32"/>
</svg>
