<svg width="25" height="25" viewBox="0 0 25 25" fill="none" xmlns="http://www.w3.org/2000/svg">
<path d="M13.25 16.6347H13.9C14.55 16.6347 15.09 16.0547 15.09 15.3547C15.09 14.4847 14.78 14.3147 14.27 14.1347L13.26 13.7847V16.6347H13.25Z" fill="#292D32"/>
<path d="M12.4701 2.61476C6.95007 2.63476 2.48007 7.12476 2.50007 12.6448C2.52007 18.1648 7.01007 22.6348 12.5301 22.6148C18.0501 22.5948 22.5201 18.1048 22.5001 12.5848C22.4801 7.06476 17.9901 2.60476 12.4701 2.61476ZM14.7601 12.7148C15.5401 12.9848 16.5901 13.5648 16.5901 15.3548C16.5901 16.8948 15.3801 18.1348 13.9001 18.1348H13.2501V18.7148C13.2501 19.1248 12.9101 19.4648 12.5001 19.4648C12.0901 19.4648 11.7501 19.1248 11.7501 18.7148V18.1348H11.3901C9.75007 18.1348 8.42007 16.7548 8.42007 15.0548C8.42007 14.6448 8.76007 14.3048 9.17007 14.3048C9.58007 14.3048 9.92007 14.6448 9.92007 15.0548C9.92007 15.9248 10.5801 16.6348 11.3901 16.6348H11.7501V13.2548L10.2401 12.7148C9.46007 12.4448 8.41007 11.8648 8.41007 10.0748C8.41007 8.53476 9.62007 7.29476 11.1001 7.29476H11.7501V6.71476C11.7501 6.30476 12.0901 5.96476 12.5001 5.96476C12.9101 5.96476 13.2501 6.30476 13.2501 6.71476V7.29476H13.6101C15.2501 7.29476 16.5801 8.67476 16.5801 10.3748C16.5801 10.7848 16.2401 11.1248 15.8301 11.1248C15.4201 11.1248 15.0801 10.7848 15.0801 10.3748C15.0801 9.50476 14.4201 8.79476 13.6101 8.79476H13.2501V12.1748L14.7601 12.7148Z" fill="#292D32"/>
<path d="M9.91992 10.0849C9.91992 10.9549 10.2299 11.1249 10.7399 11.3049L11.7499 11.6549V8.79492H11.0999C10.4499 8.79492 9.91992 9.37492 9.91992 10.0849Z" fill="#292D32"/>
</svg>
