<svg width="25" height="25" viewBox="0 0 25 25" fill="none" xmlns="http://www.w3.org/2000/svg">
<path d="M12.3195 7.61484C15.1795 6.99484 18.0795 6.90484 20.9495 7.37484C19.1795 4.57484 16.0595 2.71484 12.4995 2.71484C9.38953 2.71484 6.60953 4.13484 4.76953 6.36484C5.20953 7.66484 5.76953 8.90484 6.43953 10.0848C6.81953 10.7648 7.78953 10.7348 8.17953 10.0648C9.02953 8.63484 10.5595 7.67484 12.3195 7.61484Z" fill="#212121"/>
<path d="M8.22002 15.4348C6.22002 13.2948 4.66002 10.8548 3.59002 8.15479C2.09002 11.1148 2.10002 14.7448 3.93002 17.7948C5.53002 20.4648 8.17002 22.1248 11.03 22.5548C11.92 21.5048 12.7 20.3848 13.37 19.2148C13.76 18.5348 13.23 17.7248 12.45 17.7248C10.78 17.7348 9.17002 16.9148 8.22002 15.4348Z" fill="#212121"/>
<path d="M9.07031 12.715C9.07031 13.325 9.22031 13.895 9.53031 14.435C10.1403 15.485 11.2703 16.145 12.4903 16.145C13.7103 16.145 14.8503 15.485 15.4503 14.435C15.7603 13.895 15.9203 13.325 15.9203 12.715C15.9203 10.825 14.3803 9.29497 12.4903 9.29497C10.6103 9.28497 9.07031 10.825 9.07031 12.715Z" fill="#212121"/>
<path d="M21.8402 9.13464C20.4702 8.84464 19.0802 8.68464 17.7002 8.66464C16.9102 8.65464 16.4602 9.51464 16.8502 10.2046C17.2502 10.9146 17.4802 11.7346 17.4802 12.6046C17.4802 13.4446 17.2602 14.2746 16.8502 15.0146C15.9102 17.8946 14.5102 20.4546 12.6602 22.7146C18.1102 22.6246 22.5002 18.1846 22.5002 12.7146C22.5002 11.4546 22.2702 10.2446 21.8402 9.13464Z" fill="#212121"/>
</svg>
