<svg width="13" height="13" viewBox="0 0 13 13" fill="none" xmlns="http://www.w3.org/2000/svg">
<path fill-rule="evenodd" clip-rule="evenodd" d="M5.5 11.1074C5.5 11.6597 5.94772 12.1074 6.5 12.1074C7.05228 12.1074 7.5 11.6597 7.5 11.1074V7.10742H11.5C12.0523 7.10742 12.5 6.65971 12.5 6.10742C12.5 5.55514 12.0523 5.10742 11.5 5.10742H7.5V1.10742C7.5 0.555137 7.05228 0.107422 6.5 0.107422C5.94772 0.107422 5.5 0.555137 5.5 1.10742V5.10742H1.5C0.947715 5.10742 0.5 5.55514 0.5 6.10742C0.5 6.65971 0.947715 7.10742 1.5 7.10742H5.5V11.1074Z" fill="white"/>
</svg>
