<svg width="49" height="49" viewBox="0 0 49 49" fill="none" xmlns="http://www.w3.org/2000/svg">
<rect x="1.25" y="1.25" width="46.5" height="46.5" rx="23.25" fill="white" stroke="#E3E3E3" stroke-width="1.5"/>
<path fill-rule="evenodd" clip-rule="evenodd" d="M30.7989 33.2727C31.5017 33.9361 32.6093 33.904 33.2727 33.2012C33.9361 32.4983 33.904 31.3907 33.2012 30.7273L27.1328 25L33.2012 19.2727C33.904 18.6093 33.9361 17.5017 33.2727 16.7989C32.6093 16.096 31.5017 16.0639 30.7989 16.7273L24.5681 22.6079L18.1874 16.7145C17.4774 16.0587 16.3702 16.1026 15.7145 16.8126C15.0587 17.5226 15.1026 18.6298 15.8126 19.2856L21.9996 25L15.8126 30.7145C15.1026 31.3702 15.0587 32.4774 15.7145 33.1874C16.3702 33.8974 17.4774 33.9413 18.1874 33.2856L24.5681 27.3922L30.7989 33.2727Z" fill="#848484"/>
</svg>
