<svg width="46" height="46" viewBox="0 0 46 46" fill="none" xmlns="http://www.w3.org/2000/svg">
<rect x="0.5" y="0.5" width="45" height="45" rx="22.5" stroke="#EBEBEB"/>
<path d="M27 23.9V28.1C27 31.6 25.6 33 22.1 33H17.9C14.4 33 13 31.6 13 28.1V23.9C13 20.4 14.4 19 17.9 19H22.1C25.6 19 27 20.4 27 23.9Z" fill="#212121"/>
<path d="M28.0998 13H23.8998C20.8167 13 19.3707 14.0941 19.0695 16.739C19.0065 17.2923 19.4648 17.75 20.0217 17.75H22.0998C26.2998 17.75 28.2498 19.7 28.2498 23.9V25.9781C28.2498 26.535 28.7074 26.9933 29.2608 26.9303C31.9057 26.629 32.9998 25.1831 32.9998 22.1V17.9C32.9998 14.4 31.5998 13 28.0998 13Z" fill="#212121"/>
</svg>
