<svg width="20" height="20" viewBox="0 0 20 20" fill="none" xmlns="http://www.w3.org/2000/svg">
<path d="M12.8732 11.095V14.4384C12.8732 17.2246 11.7588 18.339 8.97258 18.339H5.62916C2.84299 18.339 1.72852 17.2246 1.72852 14.4384V11.095C1.72852 8.30881 2.84299 7.19434 5.62916 7.19434H8.97258C11.7588 7.19434 12.8732 8.30881 12.8732 11.095Z" fill="#3B72FF"/>
<path d="M13.7488 2.41846H10.4054C7.95109 2.41846 6.80005 3.28941 6.56025 5.3949C6.51009 5.83538 6.87489 6.1997 7.31822 6.1997H8.97249C12.3159 6.1997 13.8682 7.752 13.8682 11.0954V12.7497C13.8682 13.193 14.2325 13.5578 14.673 13.5076C16.7785 13.2679 17.6494 12.1168 17.6494 9.66252V6.31911C17.6494 3.53293 16.535 2.41846 13.7488 2.41846Z" fill="#3B72FF"/>
</svg>
