<svg width="21" height="22" viewBox="0 0 21 22" fill="none" xmlns="http://www.w3.org/2000/svg">
<path d="M14.0684 11.7707V15.3689C14.0684 18.3675 12.8689 19.5669 9.87041 19.5669H6.27217C3.27363 19.5669 2.07422 18.3675 2.07422 15.3689V11.7707C2.07422 8.77217 3.27363 7.57275 6.27217 7.57275H9.87041C12.8689 7.57275 14.0684 8.77217 14.0684 11.7707Z" fill="#F71C1C"/>
<path d="M15.0103 2.43213H11.412C8.77069 2.43213 7.53191 3.36946 7.27384 5.63543C7.21985 6.10949 7.61246 6.50157 8.08958 6.50157H9.86993C13.4682 6.50157 15.1388 8.17218 15.1388 11.7704V13.5508C15.1388 14.0279 15.5309 14.4205 16.0049 14.3665C18.2709 14.1084 19.2082 12.8697 19.2082 10.2283V6.63008C19.2082 3.63154 18.0088 2.43213 15.0103 2.43213Z" fill="#F71C1C"/>
</svg>
