<svg width="27" height="27" viewBox="0 0 27 27" fill="none" xmlns="http://www.w3.org/2000/svg">
<circle cx="13.5" cy="13.5" r="13.5" fill="#EBEBEB"/>
<path d="M18.8883 15.3704C18.6771 15.5816 18.3422 15.5816 18.1382 15.3704C17.9271 15.1592 17.9271 14.8242 18.1382 14.6203C19.5947 13.1638 19.5947 10.797 18.1382 9.34781C16.6817 7.89859 14.3149 7.89131 12.8657 9.34781C11.4165 10.8043 11.4092 13.1711 12.8657 14.6203C13.0769 14.8315 13.0769 15.1665 12.8657 15.3704C12.6545 15.5816 12.3195 15.5816 12.1156 15.3704C10.244 13.4988 10.244 10.4547 12.1156 8.59043C13.9872 6.72611 17.0313 6.71882 18.8956 8.59043C20.7599 10.462 20.7599 13.4988 18.8883 15.3704Z" fill="#8C8C8C"/>
<path d="M8.59016 12.1076C8.80135 11.8964 9.13635 11.8964 9.34026 12.1076C9.55145 12.3188 9.55145 12.6538 9.34026 12.8577C7.88376 14.3142 7.88376 16.681 9.34026 18.1302C10.7968 19.5795 13.1636 19.5867 14.6128 18.1302C16.062 16.6737 16.0693 14.3069 14.6128 12.8577C14.4016 12.6465 14.4016 12.3115 14.6128 12.1076C14.824 11.8964 15.159 11.8964 15.3629 12.1076C17.2345 13.9792 17.2345 17.0233 15.3629 18.8876C13.4913 20.7519 10.4472 20.7592 8.58288 18.8876C6.71856 17.016 6.71856 13.9792 8.59016 12.1076Z" fill="#8C8C8C"/>
</svg>
