<svg width="22" height="22" viewBox="0 0 22 22" fill="none" xmlns="http://www.w3.org/2000/svg">
<path d="M17.0413 3.70015C15.3792 2.0381 13.7515 1.99527 12.0466 3.70015L11.0099 4.73678C10.9243 4.82246 10.89 4.95953 10.9243 5.07947C11.5754 7.34979 13.3916 9.16605 15.6619 9.81716C15.6962 9.82573 15.7305 9.83429 15.7648 9.83429C15.859 9.83429 15.9447 9.80003 16.0132 9.73149L17.0413 8.69485C17.8894 7.85526 18.3007 7.04137 18.3007 6.21892C18.3092 5.37076 17.898 4.54831 17.0413 3.70015Z" fill="#212121"/>
<path d="M14.1205 10.5967C13.872 10.4768 13.6321 10.3568 13.4008 10.2197C13.2123 10.1084 13.0324 9.98843 12.8525 9.85992C12.7069 9.76568 12.5355 9.62861 12.3727 9.49153C12.3556 9.48296 12.2956 9.43156 12.2271 9.36302C11.9444 9.12314 11.6274 8.81472 11.3447 8.47203C11.319 8.45489 11.2761 8.39492 11.2162 8.31782C11.1305 8.21501 10.9848 8.04367 10.8563 7.84662C10.7535 7.71811 10.6336 7.52963 10.5222 7.34115C10.3851 7.10984 10.2652 6.87852 10.1453 6.63864C10.1271 6.59975 10.1095 6.56105 10.0925 6.52258C9.96609 6.23702 9.59372 6.15354 9.37289 6.37436L4.46518 11.2821C4.3538 11.3935 4.25099 11.6076 4.22529 11.7533L3.76266 15.0345C3.67699 15.6171 3.83977 16.1654 4.19959 16.5338C4.50801 16.8337 4.93637 16.9964 5.399 16.9964C5.50181 16.9964 5.60462 16.9879 5.70743 16.9707L8.99725 16.5081C9.15146 16.4824 9.36564 16.3796 9.46845 16.2682L14.37 11.3666C14.5924 11.1443 14.5085 10.7626 14.2193 10.6392C14.1867 10.6253 14.1538 10.6112 14.1205 10.5967Z" fill="#212121"/>
</svg>
