<svg width="46" height="46" viewBox="0 0 46 46" fill="none" xmlns="http://www.w3.org/2000/svg">
<rect x="0.5" y="0.5" width="45" height="45" rx="22.5" stroke="#EBEBEB"/>
<path d="M30.0206 14.4802C28.0806 12.5402 26.1806 12.4902 24.1906 14.4802L22.9806 15.6902C22.8806 15.7902 22.8406 15.9502 22.8806 16.0902C23.6406 18.7402 25.7606 20.8602 28.4106 21.6202C28.4506 21.6302 28.4906 21.6402 28.5306 21.6402C28.6406 21.6402 28.7406 21.6002 28.8206 21.5202L30.0206 20.3102C31.0106 19.3302 31.4906 18.3802 31.4906 17.4202C31.5006 16.4302 31.0206 15.4702 30.0206 14.4802Z" fill="#212121"/>
<path d="M26.6103 22.5298C26.3203 22.3898 26.0403 22.2498 25.7703 22.0898C25.5503 21.9598 25.3403 21.8198 25.1303 21.6698C24.9603 21.5598 24.7603 21.3998 24.5703 21.2398C24.5503 21.2298 24.4803 21.1698 24.4003 21.0898C24.0703 20.8098 23.7003 20.4498 23.3703 20.0498C23.3403 20.0298 23.2903 19.9598 23.2203 19.8698C23.1203 19.7498 22.9503 19.5498 22.8003 19.3198C22.6803 19.1698 22.5403 18.9498 22.4103 18.7298C22.2503 18.4598 22.1103 18.1898 21.9703 17.9098C21.9491 17.8644 21.9286 17.8192 21.9088 17.7743C21.7612 17.441 21.3265 17.3436 21.0688 17.6013L15.3403 23.3298C15.2103 23.4598 15.0903 23.7098 15.0603 23.8798L14.5203 27.7098C14.4203 28.3898 14.6103 29.0298 15.0303 29.4598C15.3903 29.8098 15.8903 29.9998 16.4303 29.9998C16.5503 29.9998 16.6703 29.9898 16.7903 29.9698L20.6303 29.4298C20.8103 29.3998 21.0603 29.2798 21.1803 29.1498L26.9016 23.4285C27.1612 23.1689 27.0633 22.7235 26.7257 22.5794C26.6877 22.5632 26.6492 22.5467 26.6103 22.5298Z" fill="#212121"/>
</svg>
