<svg width="46" height="46" viewBox="0 0 46 46" fill="none" xmlns="http://www.w3.org/2000/svg">
<rect x="0.5" y="0.5" width="45" height="45" rx="22.5" stroke="#EBEBEB"/>
<path d="M16 21C14.9 21 14 21.9 14 23C14 24.1 14.9 25 16 25C17.1 25 18 24.1 18 23C18 21.9 17.1 21 16 21Z" fill="#212121" stroke="#212121" stroke-width="2"/>
<path d="M30 21C28.9 21 28 21.9 28 23C28 24.1 28.9 25 30 25C31.1 25 32 24.1 32 23C32 21.9 31.1 21 30 21Z" fill="#212121" stroke="#212121" stroke-width="2"/>
<path d="M23 21C21.9 21 21 21.9 21 23C21 24.1 21.9 25 23 25C24.1 25 25 24.1 25 23C25 21.9 24.1 21 23 21Z" fill="#212121" stroke="#212121" stroke-width="2"/>
</svg>
