<svg width="130" height="131" viewBox="0 0 130 131" fill="none" xmlns="http://www.w3.org/2000/svg">
<path d="M68.5766 126.889C102.423 124.914 128.26 95.8747 126.285 62.0281C124.309 28.1814 95.2701 2.34461 61.4234 4.3199C27.5768 6.29519 1.73996 35.3346 3.71526 69.1812C5.69055 103.028 34.73 128.865 68.5766 126.889Z" fill="#3B72FF"/>
<path d="M23.5312 17.321L22.9551 16.6562C24.2935 15.4951 25.7028 14.3871 27.1298 13.3501L27.6528 14.0681C26.2435 15.1051 24.8519 16.2042 23.5312 17.321Z" fill="#3B72FF"/>
<path opacity="0.3" d="M23.5312 17.321L22.9551 16.6562C24.2935 15.4951 25.7028 14.3871 27.1298 13.3501L27.6528 14.0681C26.2435 15.1051 24.8519 16.2042 23.5312 17.321Z" fill="#FAFAFA"/>
<path d="M10.2798 33.1776L9.51758 32.7256C12.1367 28.3062 15.2696 24.2123 18.8509 20.5293L19.4891 21.1409C15.956 24.7765 12.8649 28.8167 10.2798 33.1776Z" fill="#3B72FF"/>
<path opacity="0.3" d="M10.2798 33.1776L9.51758 32.7256C12.1367 28.3062 15.2696 24.2123 18.8509 20.5293L19.4891 21.1409C15.956 24.7765 12.8649 28.8167 10.2798 33.1776Z" fill="#FAFAFA"/>
<path d="M64.9531 130.127V129.241C70.2873 129.232 75.5994 128.556 80.7657 127.229L80.9873 128.115C75.7472 129.451 70.3608 130.127 64.9531 130.127Z" fill="#3B72FF"/>
<path opacity="0.3" d="M64.9531 130.127V129.241C70.2873 129.232 75.5994 128.556 80.7657 127.229L80.9873 128.115C75.7472 129.451 70.3608 130.127 64.9531 130.127Z" fill="#FAFAFA"/>
<path d="M65.0763 122.496C51.0197 122.507 37.4584 117.305 27.015 107.896C16.5716 98.4875 9.98808 85.5404 8.53767 71.5588C7.08726 57.5772 10.873 43.5545 19.1627 32.2024C27.4525 20.8504 39.6573 12.9756 53.4168 10.1009C67.1764 7.22627 81.5131 9.55601 93.6544 16.6396C105.796 23.7232 114.879 35.0573 119.148 48.4501C123.416 61.843 122.567 76.3429 116.764 89.1458C110.961 101.949 100.617 112.145 87.7316 117.763C80.587 120.886 72.8737 122.497 65.0763 122.496ZM64.9345 9.6096C50.9297 9.58631 37.4203 14.79 27.05 24.2022C16.6797 33.6145 10.1949 46.5578 8.86477 60.4993C7.53463 74.4408 11.4549 88.3769 19.8583 99.5803C28.2617 110.784 40.5434 118.448 54.2999 121.074C68.0564 123.699 82.2975 121.096 94.2363 113.775C106.175 106.454 114.952 94.941 118.85 81.4896C122.748 68.0381 121.485 53.6162 115.31 41.0464C109.135 28.4765 98.4916 18.6633 85.4625 13.5273C78.9283 10.9379 71.9631 9.60859 64.9345 9.6096Z" fill="#FAFAFA"/>
<path d="M74.2401 121.335C71.5147 121.315 68.8142 120.814 66.2629 119.855C54.0312 115.37 42.3313 101.046 35.6659 82.4771C25.2069 53.2274 29.8071 21.8681 45.9033 12.5525C51.2214 9.47683 57.3727 9.06911 63.6836 11.3825C75.9065 15.8675 87.6152 30.191 94.2717 48.7601C104.731 78.0099 100.139 109.369 84.0343 118.685C81.0633 120.423 77.6824 121.338 74.2401 121.335ZM55.7596 10.7886C52.4622 10.7844 49.2229 11.6562 46.3731 13.3148C30.6225 22.4265 26.2085 53.3249 36.5345 82.1846C43.0847 100.506 54.6073 114.625 66.5997 119.022C72.6535 121.237 78.5389 120.856 83.6178 117.923C99.3772 108.811 103.809 77.9124 93.4652 49.0526C86.915 30.7317 75.3924 16.612 63.4 12.2157C60.9568 11.2948 58.3704 10.8117 55.7596 10.7886Z" fill="#FAFAFA"/>
<path d="M10.317 80.0397C10.1995 80.055 10.0807 80.023 9.98678 79.9507C9.89286 79.8784 9.83151 79.7717 9.81623 79.6542C9.80095 79.5366 9.83298 79.4178 9.90529 79.3239C9.9776 79.23 10.0843 79.1686 10.2018 79.1534L119.578 51.2066C119.634 51.1907 119.693 51.1865 119.75 51.1941C119.808 51.2018 119.863 51.2212 119.913 51.251C119.963 51.2809 120.006 51.3207 120.04 51.368C120.074 51.4152 120.098 51.4689 120.11 51.5256C120.125 51.5821 120.128 51.6409 120.12 51.6987C120.112 51.7564 120.092 51.812 120.063 51.8622C120.033 51.9125 119.994 51.9563 119.947 51.9914C119.9 52.0264 119.847 52.0519 119.791 52.0663L10.4234 80.022L10.317 80.0397Z" fill="#FAFAFA"/>
<path d="M78.991 120.75C78.8924 120.75 78.7965 120.717 78.7192 120.656C78.6419 120.595 78.5877 120.509 78.5656 120.413L50.6276 11.0456C50.6004 10.9317 50.6185 10.8117 50.678 10.7108C50.7375 10.61 50.8338 10.5362 50.9467 10.5049C51.0031 10.4903 51.0619 10.4869 51.1197 10.495C51.1775 10.5032 51.233 10.5226 51.2833 10.5522C51.3335 10.5819 51.3774 10.6211 51.4124 10.6678C51.4474 10.7144 51.4729 10.7675 51.4874 10.824L79.4342 120.192C79.4488 120.248 79.4522 120.307 79.4441 120.365C79.436 120.422 79.4165 120.478 79.3869 120.528C79.3572 120.578 79.318 120.622 79.2713 120.657C79.2247 120.692 79.1716 120.718 79.1151 120.732L78.991 120.75Z" fill="#FAFAFA"/>
<path d="M25.4815 106.355C25.3818 106.356 25.2847 106.324 25.2059 106.263C25.1271 106.201 25.0712 106.115 25.0472 106.019C25.0327 105.963 25.0294 105.905 25.0376 105.847C25.0458 105.79 25.0654 105.735 25.0951 105.686C25.1248 105.636 25.1641 105.593 25.2107 105.559C25.2572 105.525 25.3102 105.5 25.3663 105.487L118.868 81.5552C118.924 81.5406 118.983 81.5372 119.041 81.5453C119.099 81.5534 119.154 81.5729 119.205 81.6025C119.255 81.6322 119.299 81.6714 119.334 81.7181C119.369 81.7647 119.394 81.8178 119.409 81.8743C119.436 81.9882 119.418 82.1082 119.358 82.2091C119.299 82.3099 119.202 82.3838 119.09 82.415L25.5879 106.347C25.5537 106.358 25.5172 106.361 25.4815 106.355Z" fill="#FAFAFA"/>
<path d="M11.026 49.6639C10.9085 49.6791 10.7897 49.6471 10.6957 49.5748C10.6018 49.5025 10.5405 49.3958 10.5252 49.2783C10.5099 49.1607 10.542 49.0419 10.6143 48.948C10.6866 48.8541 10.7932 48.7928 10.9108 48.7775L104.412 24.8902C104.469 24.8755 104.528 24.8722 104.585 24.8803C104.643 24.8884 104.699 24.9079 104.749 24.9375C104.799 24.9671 104.843 25.0064 104.878 25.053C104.913 25.0997 104.939 25.1528 104.953 25.2093C104.98 25.322 104.962 25.4409 104.902 25.5403C104.843 25.6397 104.746 25.7118 104.634 25.7411L11.1324 49.6727L11.026 49.6639Z" fill="#FAFAFA"/>
<path opacity="0.1" d="M50.6101 85.5346L64.9956 43.2466H59.3141L38.5822 65.2282L24.1523 86.4742H29.8339L43.0229 73.294L44.9285 85.5346H50.6101Z" fill="black"/>
<path d="M44.928 85.5346L59.3135 43.2466L17.0255 57.6321L29.2749 65.2282L16.0859 78.4172L24.1518 86.4742L37.3319 73.294L44.928 85.5346Z" fill="#FAFAFA"/>
</svg>
