<svg width="124" height="76" viewBox="0 0 124 76" fill="none" xmlns="http://www.w3.org/2000/svg">
<path d="M11.5131 75.7091L18.3967 72.4102C19.0345 70.2824 19.6778 68.1492 20.3815 65.8125L28.6287 69.4797L31.4052 60.8587L39.6524 64.438L42.3355 55.7674C44.7162 56.8671 46.734 57.9227 48.8452 58.6375C49.997 59.0279 51.2453 59.0279 52.397 58.6375C55.3715 57.4389 58.2195 55.9159 61.194 54.4754C61.6228 55.2946 61.8922 55.7729 62.1287 56.2678C63.5417 59.2312 63.6406 59.2752 66.6646 57.8842C69.8865 56.4052 73.1139 54.9372 76.2973 53.3923C77.6498 52.7325 78.6834 52.8424 80.058 53.6232C90.5593 59.5226 101.121 59.847 111.271 52.9744C120.881 46.4591 125.087 37.0684 123.669 25.6213C122.25 14.1743 115.763 6.30099 105.036 2.29837C88.1237 -4.00796 69.76 6.93327 66.945 24.7856C66.7086 26.2591 66.1698 27.0453 64.8227 27.6061C62.0737 28.7552 59.3741 30.0528 56.6635 31.3009C52.1111 33.3902 52.1166 33.3902 53.5626 38.223C52.6499 38.7123 51.9132 39.1742 51.0995 39.537C40.5596 44.3589 12.4808 56.8891 3.26594 60.9796L0.0605469 71.9044L11.5131 75.7091ZM116.642 26.7759C115.799 28.9642 114.325 30.853 112.407 32.2029C110.489 33.5528 108.214 34.3032 105.869 34.359C103.524 34.4148 101.216 33.7735 99.236 32.5163C97.2561 31.2592 95.6938 29.4428 94.747 27.2971C93.8002 25.1514 93.5115 22.773 93.9175 20.4631C94.3234 18.1532 95.4057 16.0157 97.0274 14.3214C98.649 12.6271 100.737 11.4521 103.027 10.9454C105.317 10.4386 107.706 10.6228 109.891 11.4747C111.345 12.0306 112.674 12.8692 113.802 13.942C114.93 15.0149 115.834 16.3007 116.462 17.7252C117.09 19.1496 117.429 20.6844 117.46 22.2407C117.491 23.7971 117.213 25.3441 116.642 26.7924V26.7759Z" fill="#3B72FF"/>
<path opacity="0.3" d="M54.7873 46.1119L7.24522 66.7243C6.86245 66.8897 6.42961 66.8964 6.04193 66.7428C5.65424 66.5891 5.34346 66.2878 5.17794 65.905C5.01246 65.5223 5.00579 65.0894 5.15942 64.7017C5.31306 64.314 5.61439 64.0033 5.99715 63.8377L53.5338 43.2308C53.7229 43.148 53.9265 43.1033 54.1329 43.0994C54.3393 43.0955 54.5444 43.1324 54.7365 43.208C54.9287 43.2836 55.1039 43.3965 55.2523 43.54C55.4006 43.6836 55.5192 43.8551 55.6011 44.0446C55.6839 44.2337 55.7286 44.4373 55.7325 44.6437C55.7364 44.8501 55.6995 45.0552 55.6239 45.2473C55.5483 45.4394 55.4355 45.6147 55.2919 45.7631C55.1483 45.9114 54.9769 46.03 54.7873 46.1119Z" fill="black"/>
<path d="M57.3929 46.2754C57.3929 46.2754 57.3489 46.3084 57.2555 46.3579L56.8321 46.5613L55.1827 47.3255L49.1348 50.0746C44.038 52.4003 37.0005 55.5727 29.1986 59.086C21.3968 62.5993 14.3043 65.6837 9.14155 67.828C6.56294 68.9276 4.46267 69.7798 3.01117 70.3626L1.36174 71.0224L0.921889 71.1928L0.773438 71.2368C0.773438 71.2368 0.817422 71.2093 0.91089 71.1653L1.33975 70.9729L2.98918 70.2581L9.08658 67.6465C14.2273 65.4473 21.3034 62.3079 29.1052 58.8496L49.0743 49.9096L55.1222 47.2266L56.7716 46.5173L57.206 46.3359L57.3929 46.2754Z" fill="#263238"/>
<path d="M62.6222 56.723C62.5507 56.756 60.3845 52.3905 57.7784 46.9694C55.1723 41.5482 53.127 37.1278 53.193 37.0728C53.2589 37.0178 55.4362 41.3998 58.0368 46.8264C60.6374 52.253 62.6937 56.723 62.6222 56.723Z" fill="#263238"/>
<path d="M122.323 29.3311C122.323 29.3311 122.323 29.1827 122.29 28.8968C122.257 28.6109 122.246 28.1765 122.207 27.6267C122.207 27.3445 122.191 27.0311 122.158 26.6865C122.119 26.3456 122.048 25.9718 121.987 25.5869C121.927 25.202 121.855 24.7457 121.784 24.2838C121.693 23.7904 121.575 23.3022 121.432 22.8213C120.811 20.3149 119.812 17.9177 118.468 15.7123C116.717 12.7744 114.413 10.2034 111.684 8.14141L110.535 7.2837C110.128 7.0143 109.699 6.77237 109.281 6.51396C108.863 6.25555 108.44 5.96416 107.978 5.76073L106.593 5.09546L105.889 4.76008L105.152 4.49066L103.629 3.94085C103.118 3.77041 102.584 3.66045 102.057 3.5175C101.528 3.3629 100.99 3.24171 100.446 3.15463C99.3327 2.94588 98.2065 2.81543 97.0753 2.76426C96.498 2.76426 95.9207 2.68728 95.3379 2.69278L93.573 2.78625C93.2761 2.78625 92.9792 2.78625 92.6823 2.84123L91.7916 2.97869C91.1978 3.07765 90.5985 3.14913 89.9992 3.27008C88.7936 3.53978 87.6071 3.88875 86.4475 4.31472L85.5623 4.63912C85.4138 4.6941 85.2654 4.74358 85.1224 4.80406L84.6936 5.00749L82.9727 5.8432C82.4228 6.1456 81.873 6.50297 81.3232 6.83285C81.0483 7.0033 80.7734 7.15724 80.4985 7.34968L79.7178 7.93798C78.6534 8.7251 77.6431 9.58291 76.6938 10.5056L75.3413 12.0011L75.0004 12.3749L74.6925 12.7763L74.0822 13.5955L73.4554 14.3873L72.9056 15.2615L72.3558 16.1466L72.0864 16.5865C72.0039 16.7404 71.9325 16.8999 71.8555 17.0538L70.9538 18.9342C70.7119 19.5885 70.47 20.2427 70.2281 20.908C68.3963 26.3609 68.3963 32.2629 70.2281 37.7157C70.47 38.3755 70.7119 39.0353 70.9483 39.6895C71.1847 40.3438 71.5531 40.9431 71.8555 41.5699L72.0809 42.0372L72.3503 42.4771L72.9001 43.3623L73.4499 44.2365L74.0657 45.0557L74.676 45.8749L74.9784 46.2763L75.3193 46.6556C75.7756 47.1505 76.2265 47.6508 76.6773 48.1456C77.6247 49.0682 78.6332 49.9261 79.6958 50.7132L80.482 51.3015C80.7404 51.4995 81.0318 51.6479 81.3067 51.8513C81.8565 52.1812 82.4064 52.5331 82.9562 52.841L84.6771 53.6712L85.1059 53.8746L85.5458 54.0451L86.431 54.3695C87.5907 54.7937 88.7772 55.1408 89.9827 55.4086C90.582 55.5351 91.1868 55.6011 91.7751 55.7L92.6658 55.8375C92.9627 55.876 93.2596 55.876 93.5565 55.8925L95.3214 55.9859C95.9042 55.9859 96.4815 55.9364 97.0588 55.9199C98.1898 55.8664 99.3158 55.7359 100.429 55.5296C100.973 55.438 101.511 55.315 102.04 55.1612C102.59 55.0183 103.101 54.9083 103.613 54.7433L105.114 54.1935L105.856 53.9241L106.56 53.5887L107.94 52.9235C108.401 52.7145 108.814 52.4176 109.243 52.1757C109.671 51.9338 110.089 51.6699 110.496 51.406L111.651 50.5428C114.392 48.4844 116.708 45.9154 118.474 42.9774C119.809 40.7581 120.797 38.3477 121.404 35.8299C121.547 35.3507 121.665 34.8644 121.756 34.3729C121.828 33.9055 121.894 33.4712 121.96 33.0643C122.026 32.6575 122.092 32.2891 122.13 31.9647C122.169 31.6403 122.163 31.3104 122.18 31.03C122.218 30.4802 122.24 30.0514 122.262 29.76C122.284 29.4686 122.295 29.3256 122.295 29.3256C122.295 29.3256 122.295 29.4686 122.295 29.76C122.295 30.0514 122.268 30.4802 122.246 31.03C122.246 31.3159 122.218 31.6293 122.207 31.9702C122.196 32.3111 122.103 32.6904 122.048 33.0698C121.993 33.4492 121.927 33.911 121.855 34.3784C121.77 34.8734 121.658 35.3635 121.52 35.8464C120.911 38.3636 119.923 40.7737 118.589 42.9939C116.838 45.97 114.527 48.5784 111.783 50.6747L110.623 51.5434C110.216 51.8129 109.787 52.0603 109.364 52.3242C108.94 52.5881 108.517 52.874 108.055 53.0829L106.659 53.7592L105.949 54.0946L105.207 54.3695L103.695 54.9193C103.178 55.0952 102.645 55.2052 102.112 55.3481C101.57 55.5073 101.019 55.6321 100.462 55.722C99.338 55.9321 98.201 56.0662 97.0588 56.1234C96.509 56.1234 95.8987 56.2058 95.3104 56.1948L93.529 56.1069C93.2266 56.1069 92.9297 56.1069 92.6273 56.0519L91.7311 55.9144C91.1318 55.8155 90.5216 55.7495 89.9223 55.623C88.7038 55.3542 87.5045 55.0052 86.332 54.5784L85.4358 54.2485C85.2874 54.1935 85.1334 54.1441 84.9905 54.0836L84.5561 53.8746L82.8187 53.0389C82.2689 52.731 81.7191 52.3737 81.1418 52.0383C80.8614 51.8623 80.592 51.7139 80.3061 51.516L79.5144 50.9222C78.4377 50.1275 77.4163 49.2605 76.4574 48.3271L75.0884 46.8261L74.742 46.4467L74.4341 46.0343L73.8183 45.2096L73.197 44.3849L72.6472 43.4997L72.0974 42.6035L71.8225 42.1582L71.5916 41.6853L70.6789 39.7885C70.437 39.1287 70.1896 38.4635 69.9476 37.7927C68.093 32.2815 68.093 26.3147 69.9476 20.8035C70.1951 20.1383 70.437 19.473 70.6789 18.8132C70.9208 18.1535 71.2892 17.5432 71.5971 16.9109C71.674 16.7569 71.7455 16.5975 71.828 16.4435L72.0974 15.9927L72.6472 15.102L73.197 14.2168L73.8183 13.3921L74.4341 12.5674L74.7475 12.155L75.0884 11.7757C75.5502 11.2753 76.0066 10.7695 76.4574 10.2747C77.4189 9.34413 78.4401 8.47726 79.5144 7.67957L80.3061 7.08577C80.57 6.88784 80.8559 6.73939 81.1418 6.53596C81.6916 6.20058 82.2414 5.8432 82.8187 5.5353L84.5561 4.6996L84.9905 4.49066C85.1334 4.43019 85.2874 4.3807 85.4358 4.32572L86.332 4.00133C87.5025 3.57275 88.7 3.22194 89.9168 2.95119C90.5216 2.83024 91.1318 2.75876 91.7311 2.65979L92.6273 2.52784C92.9242 2.48935 93.2266 2.48936 93.529 2.46737L95.3049 2.37939C95.8932 2.37939 96.4815 2.42887 97.0588 2.45086C98.2009 2.50842 99.3379 2.64251 100.462 2.85223C101.019 2.9448 101.569 3.06963 102.112 3.2261C102.661 3.37455 103.178 3.48451 103.695 3.65495L105.207 4.20476L105.949 4.47967L106.659 4.81505L108.055 5.49132C108.517 5.70575 108.929 6.00265 109.364 6.25556C109.798 6.50847 110.216 6.76138 110.623 7.03079L111.783 7.90499C114.521 9.99053 116.829 12.5878 118.578 15.5528C119.916 17.7718 120.906 20.1822 121.514 22.7004C121.652 23.1836 121.763 23.6736 121.85 24.1684C121.921 24.6357 121.982 25.0756 122.042 25.4824C122.103 25.8893 122.169 26.2577 122.202 26.582C122.235 26.9064 122.229 27.2418 122.24 27.5222C122.24 28.072 122.279 28.5009 122.29 28.7978C122.301 29.0947 122.323 29.3311 122.323 29.3311Z" fill="#263238"/>
<path d="M118.631 22.5272C118.613 22.4571 118.604 22.3851 118.603 22.3128L118.559 21.6805C118.559 21.5449 118.548 21.391 118.526 21.2187C118.526 21.0483 118.471 20.8668 118.438 20.6689C118.38 20.2079 118.286 19.7521 118.158 19.3054C117.847 18.0666 117.35 16.882 116.684 15.7921C114.929 12.9043 112.139 10.7944 108.882 9.89235C105.625 8.99031 102.147 9.36399 99.1565 10.9372C98.5945 11.2433 98.0561 11.5907 97.5455 11.9764C97.0212 12.3642 96.5234 12.7867 96.0555 13.2409C95.5918 13.718 95.1619 14.2269 94.769 14.7639C93.9496 15.8616 93.3145 17.0853 92.8886 18.3872C91.9871 21.0774 91.9871 23.9881 92.8886 26.6783C93.3149 27.9772 93.948 29.1989 94.7635 30.2961C95.1598 30.8337 95.5914 31.3443 96.0555 31.8245C96.5234 32.2788 97.0212 32.7013 97.5455 33.0891C98.0574 33.4729 98.5957 33.8202 99.1565 34.1282C99.7091 34.4209 100.282 34.6727 100.872 34.8815C103.081 35.6857 105.465 35.885 107.777 35.4588C109.615 35.1149 111.358 34.3859 112.893 33.3199C114.428 32.2538 115.72 30.8747 116.684 29.2734C117.35 28.1835 117.847 26.9989 118.158 25.7601C118.286 25.3134 118.38 24.8576 118.438 24.3966C118.471 24.1932 118.51 24.0117 118.526 23.8468L118.559 23.385L118.603 22.7527C118.604 22.6804 118.613 22.6084 118.631 22.5382C118.638 22.6095 118.638 22.6814 118.631 22.7527C118.631 22.9121 118.631 23.121 118.631 23.385C118.631 23.5279 118.631 23.6819 118.631 23.8523C118.631 24.0227 118.587 24.2097 118.559 24.4021C118.509 24.8681 118.422 25.3294 118.301 25.7821C118.006 27.0392 117.518 28.2429 116.855 29.3504C115.889 30.984 114.587 32.3938 113.035 33.4867C111.484 34.5795 109.718 35.3304 107.854 35.6897C105.5 36.1368 103.068 35.947 100.811 35.1399C100.212 34.9254 99.6276 34.6701 99.063 34.3757C98.4884 34.0642 97.9371 33.7114 97.4136 33.32C96.8783 32.923 96.3695 32.4914 95.8906 32.028C95.4161 31.5417 94.9752 31.0237 94.571 30.4775C93.7284 29.3511 93.073 28.096 92.6302 26.7608C91.7066 24.0121 91.7066 21.0369 92.6302 18.2882C93.0691 16.9623 93.7168 15.7151 94.549 14.5935C94.9546 14.0467 95.3954 13.5269 95.8686 13.0375C96.3476 12.5758 96.8563 12.1461 97.3916 11.751C97.9151 11.3596 98.4664 11.0068 99.041 10.6953C99.6057 10.4009 100.19 10.1456 100.789 9.93109C103.046 9.12397 105.478 8.93416 107.832 9.38128C109.694 9.73746 111.458 10.4854 113.007 11.5756C114.557 12.6657 115.858 14.073 116.822 15.7041C117.485 16.8116 117.973 18.0153 118.268 19.2724C118.389 19.7251 118.476 20.1864 118.526 20.6524C118.526 20.8558 118.587 21.0428 118.598 21.2022C118.609 21.3616 118.598 21.5266 118.598 21.6695C118.598 21.9335 118.598 22.1424 118.598 22.3018C118.617 22.3755 118.628 22.4511 118.631 22.5272Z" fill="#263238"/>
<path opacity="0.3" d="M83.0234 3.30196V55.1381C85.3818 56.2631 87.8716 57.0887 90.4349 57.5958L89.8851 1.03125C87.5055 1.47351 85.1971 2.23741 83.0234 3.30196Z" fill="white"/>
<path d="M79.2621 53.2376C79.1796 53.2376 79.1191 42.5932 79.1191 29.4637C79.1191 16.3343 79.1796 5.68994 79.2621 5.68994C79.3446 5.68994 79.405 16.3343 79.405 29.4637C79.405 42.5932 79.3391 53.2376 79.2621 53.2376Z" fill="white"/>
<path d="M73.5926 11.2715C73.4759 11.502 73.3379 11.7211 73.1802 11.9258C72.8943 12.3326 72.4985 12.9374 72.0421 13.7016C71.5031 14.5915 71.0112 15.5091 70.5686 16.4507C70.0287 17.603 69.5551 18.7852 69.1501 19.9915C68.7614 21.2043 68.4401 22.4378 68.1879 23.6862C67.9735 24.8408 67.8251 25.8854 67.7481 26.7706C67.6711 27.6558 67.6216 28.3761 67.6106 28.8764C67.6187 29.1342 67.6003 29.3921 67.5557 29.6462C67.5145 29.3899 67.4961 29.1304 67.5007 28.8709C67.5007 28.3761 67.5007 27.6503 67.5447 26.7542C67.6162 25.7088 67.7447 24.6681 67.9295 23.6367C68.3945 21.1056 69.2009 18.6494 70.3267 16.3352C70.7901 15.3919 71.304 14.4742 71.8662 13.5862C72.3555 12.8329 72.7734 12.2446 73.0868 11.8543C73.2373 11.645 73.4066 11.4499 73.5926 11.2715Z" fill="white"/>
<path d="M65.5161 29.3159C63.9328 30.23 62.3032 31.0613 60.6338 31.8066C59.0044 32.6394 57.3325 33.3864 55.625 34.0443C57.2073 33.1269 58.8371 32.2936 60.5073 31.5482C62.1373 30.7183 63.8092 29.9732 65.5161 29.3159Z" fill="white"/>
<path d="M51.2908 40.9482C51.2908 40.9482 51.2578 40.9757 51.1808 41.0197L50.8509 41.1902L49.5534 41.8334C48.4263 42.3832 46.8043 43.175 44.7535 44.1316C40.6959 46.0505 35.0549 48.6456 28.809 51.4166C22.5632 54.1877 16.8232 56.6013 12.6666 58.3113C10.5883 59.169 8.9059 59.8507 7.71831 60.3126L6.37127 60.8349L6.0194 60.9668L5.89844 60.9998C5.89844 60.9998 5.93142 60.9723 6.0084 60.9394L6.34929 60.7799L7.67983 60.2301L12.5731 58.1463C16.7077 56.3924 22.4092 53.9458 28.6771 51.1802C34.9449 48.4147 40.5915 45.8416 44.6766 43.9722L49.5094 41.773L50.8289 41.1792L51.1753 41.0307L51.2908 40.9482Z" fill="white"/>
<path d="M105.768 8.04883C105.768 8.10381 104.817 7.91138 103.289 7.96636C101.296 8.03199 99.3457 8.55744 97.5898 9.50167C95.8339 10.4459 94.3201 11.7833 93.1667 13.4095C92.276 14.6521 91.9186 15.5482 91.8691 15.5208C91.9208 15.3026 92.0002 15.0919 92.1056 14.894C92.3572 14.3356 92.6571 13.8003 93.0018 13.294C94.1358 11.6068 95.6658 10.2231 97.4581 9.26371C99.2504 8.30432 101.25 7.79849 103.283 7.79042C103.896 7.78542 104.508 7.82955 105.114 7.92238C105.337 7.93735 105.556 7.97982 105.768 8.04883Z" fill="white"/>
<path d="M109.984 5.20207C109.747 5.12239 109.518 5.01925 109.302 4.89418C108.878 4.67426 108.252 4.38286 107.465 4.04197C106.679 3.70109 105.728 3.35471 104.656 3.01383C103.484 2.66404 102.292 2.38315 101.088 2.17262C99.8813 1.97422 98.664 1.84937 97.4424 1.79875C96.4452 1.76477 95.4468 1.78312 94.4514 1.85373C93.5992 1.91421 92.9065 1.98568 92.4337 2.05166C92.1897 2.10291 91.9407 2.12689 91.6914 2.12314C91.9267 2.03865 92.1698 1.97787 92.4171 1.9417C92.89 1.84274 93.5772 1.73827 94.4295 1.6503C95.4342 1.55132 96.444 1.51276 97.4534 1.53484C98.6875 1.57502 99.9178 1.69254 101.137 1.88672C102.353 2.10119 103.554 2.39319 104.733 2.76092C105.693 3.0699 106.633 3.43712 107.548 3.86054C108.329 4.22342 108.944 4.5478 109.357 4.79522C109.578 4.9104 109.788 5.04664 109.984 5.20207Z" fill="white"/>
</svg>
