<svg width="29" height="30" viewBox="0 0 29 30" fill="none" xmlns="http://www.w3.org/2000/svg">
<path d="M24.1654 21.6462C24.6308 21.6464 25.0784 21.8257 25.4152 22.1469C25.7521 22.4681 25.9525 22.9066 25.9749 23.3716C25.9972 23.8365 25.8399 24.2922 25.5354 24.6443C25.2309 24.9963 24.8027 25.2178 24.3394 25.2627L24.1654 25.2712H4.83203C4.36656 25.2709 3.91902 25.0916 3.58215 24.7704C3.24527 24.4492 3.04489 24.0107 3.02252 23.5458C3.00015 23.0808 3.15751 22.6251 3.46199 22.273C3.76647 21.921 4.19473 21.6995 4.65803 21.6546L4.83203 21.6462H24.1654ZM24.1654 13.1878C24.6461 13.1878 25.1071 13.3788 25.447 13.7187C25.7869 14.0586 25.9779 14.5196 25.9779 15.0003C25.9779 15.481 25.7869 15.942 25.447 16.282C25.1071 16.6219 24.6461 16.8128 24.1654 16.8128H4.83203C4.35133 16.8128 3.89031 16.6219 3.5504 16.282C3.21049 15.942 3.01953 15.481 3.01953 15.0003C3.01953 14.5196 3.21049 14.0586 3.5504 13.7187C3.89031 13.3788 4.35133 13.1878 4.83203 13.1878H24.1654ZM24.1654 4.72949C24.6461 4.72949 25.1071 4.92045 25.447 5.26036C25.7869 5.60027 25.9779 6.06129 25.9779 6.54199C25.9779 7.0227 25.7869 7.48371 25.447 7.82362C25.1071 8.16353 24.6461 8.35449 24.1654 8.35449H4.83203C4.35133 8.35449 3.89031 8.16353 3.5504 7.82362C3.21049 7.48371 3.01953 7.0227 3.01953 6.54199C3.01953 6.06129 3.21049 5.60027 3.5504 5.26036C3.89031 4.92045 4.35133 4.72949 4.83203 4.72949H24.1654Z" fill="black"/>
</svg>
