<svg width="52" height="52" viewBox="0 0 52 52" fill="none" xmlns="http://www.w3.org/2000/svg">
<circle opacity="0.1" cx="26" cy="26" r="26" fill="#3B72FF"/>
<path d="M24.5 18.5C24.6989 18.5 24.8897 18.579 25.0303 18.7197C25.171 18.8603 25.25 19.0511 25.25 19.25V27.25H33.25C33.4312 27.25 33.6063 27.3156 33.7429 27.4348C33.8795 27.5539 33.9684 27.7184 33.993 27.898L34 28C34 32.97 29.97 36.5 25 36.5C22.6131 36.5 20.3239 35.5518 18.636 33.864C16.9482 32.1761 16 29.8869 16 27.5C16 22.53 19.53 18.5 24.5 18.5ZM27.5 16C29.8869 16 32.1761 16.9482 33.864 18.636C35.5518 20.3239 36.5 22.6131 36.5 25C36.5 25.1989 36.421 25.3897 36.2803 25.5303C36.1397 25.671 35.9489 25.75 35.75 25.75H27.5C27.3011 25.75 27.1103 25.671 26.9697 25.5303C26.829 25.3897 26.75 25.1989 26.75 25V16.75C26.75 16.5511 26.829 16.3603 26.9697 16.2197C27.1103 16.079 27.3011 16 27.5 16Z" fill="#3B72FF"/>
</svg>
