<svg width="46" height="46" viewBox="0 0 46 46" fill="none" xmlns="http://www.w3.org/2000/svg">
<rect x="0.5" y="0.5" width="45" height="45" rx="22.5" stroke="#EBEBEB"/>
<path fill-rule="evenodd" clip-rule="evenodd" d="M24.803 16.333C24.803 14.493 26.303 13 28.151 13C28.5897 12.999 29.0244 13.0843 29.4302 13.2513C29.8359 13.4182 30.2048 13.6634 30.5158 13.9729C30.8268 14.2824 31.0738 14.6501 31.2426 15.0551C31.4115 15.46 31.499 15.8943 31.5 16.333C31.5 18.174 30 19.667 28.151 19.667C27.7076 19.6676 27.2685 19.58 26.8592 19.4093C26.45 19.2387 26.0787 18.9884 25.767 18.673L21.132 21.829C21.2611 22.472 21.1978 23.1388 20.95 23.746L26.032 27.086C26.6306 26.5978 27.3796 26.3318 28.152 26.333C28.5907 26.3321 29.0254 26.4176 29.4311 26.5846C29.8368 26.7517 30.2056 26.997 30.5165 27.3066C30.8274 27.6162 31.0743 27.984 31.243 28.389C31.4118 28.794 31.4991 29.2283 31.5 29.667C31.5 31.507 30 33 28.151 33C27.2651 33.0019 26.4147 32.6518 25.7869 32.0268C25.159 31.4017 24.8051 30.5529 24.803 29.667C24.8022 29.1996 24.9007 28.7374 25.092 28.311L20.05 25C19.4394 25.5309 18.6571 25.8226 17.848 25.821C17.4092 25.8221 16.9745 25.7366 16.5688 25.5696C16.163 25.4026 15.7941 25.1573 15.4832 24.8477C15.1723 24.5381 14.9254 24.1702 14.7567 23.7652C14.588 23.3601 14.5008 22.9258 14.5 22.487C14.5009 22.0483 14.5883 21.6141 14.757 21.2091C14.9258 20.8042 15.1727 20.4365 15.4836 20.127C15.7945 19.8175 16.1633 19.5722 16.569 19.4053C16.9747 19.2383 17.4093 19.153 17.848 19.154C18.912 19.154 19.858 19.647 20.471 20.415L24.964 17.356C24.8571 17.0255 24.8028 16.6803 24.803 16.333Z" fill="#212121"/>
</svg>
