<svg width="14" height="17" viewBox="0 0 14 17" fill="none" xmlns="http://www.w3.org/2000/svg">
<path fill-rule="evenodd" clip-rule="evenodd" d="M8.68272 2.89271C8.68272 1.44026 9.86678 0.261726 11.3255 0.261726C11.6719 0.260896 12.015 0.32829 12.3353 0.46006C12.6556 0.59183 12.9468 0.785396 13.1922 1.02971C13.4377 1.27401 13.6327 1.56428 13.766 1.88394C13.8993 2.20359 13.9683 2.54637 13.9692 2.89271C13.9692 4.34595 12.7851 5.52448 11.3255 5.52448C10.9755 5.52491 10.6289 5.45577 10.3058 5.32107C9.98279 5.18637 9.68972 4.9888 9.44368 4.73984L5.78493 7.23111C5.88683 7.73867 5.83686 8.26501 5.64127 8.74434L9.65286 11.3808C10.1254 10.9955 10.7166 10.7855 11.3263 10.7864C11.6727 10.7857 12.0158 10.8532 12.336 10.9851C12.6563 11.1169 12.9474 11.3106 13.1928 11.555C13.4382 11.7994 13.6331 12.0897 13.7663 12.4094C13.8995 12.7291 13.9684 13.0719 13.9692 13.4182C13.9692 14.8707 12.7851 16.0492 11.3255 16.0492C10.6262 16.0507 9.95496 15.7743 9.45935 15.2809C8.96375 14.7876 8.6844 14.1175 8.68272 13.4182C8.68211 13.0493 8.75987 12.6844 8.91085 12.3478L4.93083 9.73421C4.44885 10.1533 3.83133 10.3835 3.19263 10.3823C2.84626 10.3831 2.50313 10.3157 2.18283 10.1839C1.86254 10.052 1.57136 9.85839 1.32593 9.61398C1.0805 9.36958 0.885629 9.07921 0.752459 8.75947C0.619289 8.43973 0.550426 8.09688 0.549805 7.75052C0.550529 7.40422 0.619469 7.06145 0.752685 6.7418C0.885902 6.42215 1.08079 6.13188 1.3262 5.88756C1.57162 5.64324 1.86277 5.44966 2.18302 5.31788C2.50326 5.1861 2.84633 5.1187 3.19263 5.11953C4.03252 5.11953 4.77927 5.50869 5.26316 6.11493L8.80981 3.70024C8.72543 3.43938 8.68255 3.16688 8.68272 2.89271Z" fill="#212121"/>
</svg>
